HIERARCHY
ROOT Hips
{
	OFFSET 0.000000 0.000000 0.000000 
	CHANNELS 6 Xposition Yposition Zposition Zrotation Yrotation Xrotation
	JOINT LeftUpLeg
	{
		OFFSET 1.363060 -1.794630 0.839290 
		CHANNELS 3 Zrotation Yrotation Xrotation
		JOINT LeftLeg
		{
			OFFSET 2.448110 -6.726130 0.000000 
			CHANNELS 3 Zrotation Yrotation Xrotation
			JOINT LeftFoot
			{
				OFFSET 2.562200 -7.039590 0.000000 
				CHANNELS 3 Zrotation Yrotation Xrotation
				JOINT LeftToeBase
				{
					OFFSET 0.157640 -0.433110 2.322550 
					CHANNELS 3 Zrotation Yrotation Xrotation
					End Site
					{
						OFFSET 0.000000 0.000000 0.000000 
					}
				}
			}
		}
	}
	JOINT RightUpLeg
	{
		OFFSET -1.305520 -1.794630 0.839290 
		CHANNELS 3 Zrotation Yrotation Xrotation
		JOINT RightLeg
		{
			OFFSET -2.542530 -6.985550 0.000000 
			CHANNELS 3 Zrotation Yrotation Xrotation
			JOINT RightFoot
			{
				OFFSET -2.568260 -7.056230 0.000000 
				CHANNELS 3 Zrotation Yrotation Xrotation
				JOINT RightToeBase
				{
					OFFSET -0.164730 -0.452590 2.363150 
					CHANNELS 3 Zrotation Yrotation Xrotation
					End Site
					{
						OFFSET 0.000000 0.000000 0.000000 
					}
				}
			}
		}
	}
	JOINT Spine
	{
		OFFSET 0.028270 2.035590 -0.193380 
		CHANNELS 3 Zrotation Yrotation Xrotation
		JOINT Spine1
		{
			OFFSET 0.056720 2.048850 -0.042750 
			CHANNELS 3 Zrotation Yrotation Xrotation
			JOINT Neck1
			{
				OFFSET -0.054170 1.746240 0.172020 
				CHANNELS 3 Zrotation Yrotation Xrotation
				JOINT Head
				{
					OFFSET 0.104070 1.761360 -0.123970 
					CHANNELS 3 Zrotation Yrotation Xrotation
					End Site
					{
						OFFSET 0.000000 0.000000 0.000000 
					}
				}
			}
			JOINT LeftArm
			{
				OFFSET 3.362410 1.200890 -0.311210 
				CHANNELS 3 Zrotation Yrotation Xrotation
				JOINT LeftForeArm
				{
					OFFSET 4.983000 -0.000000 -0.000000 
					CHANNELS 3 Zrotation Yrotation Xrotation
					JOINT LeftHand
					{
						OFFSET 3.483560 -0.000000 -0.000000 
						CHANNELS 3 Zrotation Yrotation Xrotation
						JOINT LeftHandIndex1
						{
							OFFSET 0.715260 -0.000000 -0.000000 
							CHANNELS 3 Zrotation Yrotation Xrotation
							End Site
							{
								OFFSET 0.000000 0.000000 0.000000 
							}
						}
					}
				}
			}
			JOINT RightArm
			{
				OFFSET -3.136600 1.374050 -0.404650 
				CHANNELS 3 Zrotation Yrotation Xrotation
				JOINT RightForeArm
				{
					OFFSET -5.241900 -0.000000 -0.000000 
					CHANNELS 3 Zrotation Yrotation Xrotation
					JOINT RightHand
					{
						OFFSET -3.444170 -0.000000 -0.000000 
						CHANNELS 3 Zrotation Yrotation Xrotation
						JOINT RightHandIndex1
						{
							OFFSET -0.622530 -0.000000 -0.000000 
							CHANNELS 3 Zrotation Yrotation Xrotation
							End Site
							{
								OFFSET 0.000000 0.000000 0.000000 
							}
						}
					}
				}
			}
		}
	}
}
MOTION
Frames: 7
Frame Time: 0.041667
6.679890 18.404007 -17.263641 9.573502 -79.487844 -4.568928 -26.180231 -1.689980 -11.559635 7.061032 9.442166 31.957928 -0.835785 -6.127638 -6.361694 1.386900 -7.451400 -21.059600 23.656799 3.666397 -16.944899 -8.752342 -12.514253 43.096152 -1.150291 -5.421796 -14.131222 -1.130000 6.751800 -18.982100 5.676352 1.207385 3.445036 1.445069 1.389855 -12.697594 2.190543 8.953913 30.195538 3.716200 4.011800 12.100300 -40.005568 -6.591223 -29.174537 29.297775 -44.132990 -5.000010 0.415368 6.265572 -4.610559 -7.125000 0.000000 0.000000 45.140923 -1.969863 -44.239612 -25.604087 41.050340 -4.846197 -0.479618 -1.418584 -17.844185 7.125000 0.000000 0.000000 
6.690581 18.435159 -17.256360 11.350065 -79.578642 -6.998013 -25.950179 -1.451066 -10.320669 6.975012 9.286843 31.532823 -0.677737 -5.611327 -6.732633 1.492900 -7.718600 -21.862500 22.558483 2.964577 -16.292019 -8.674087 -12.517209 43.074178 -1.251435 -6.135404 -14.055047 -0.933400 6.154400 -17.233000 5.136670 1.086201 4.622680 1.556137 1.403317 -13.208740 2.813050 8.837583 31.414557 3.946800 4.037400 12.562300 -37.842339 -7.265289 -30.729831 29.585903 -44.826676 -5.185447 0.443601 6.334725 -4.972855 -7.125000 0.000000 0.000000 43.022689 -1.048628 -44.546390 -25.968118 41.777429 -4.980232 -0.504534 -1.500333 -18.347144 7.125000 0.000000 0.000000 
6.700443 18.465205 -17.249540 10.132626 -79.627070 -6.312276 -25.025950 -1.225544 -9.652582 6.961670 9.268723 31.582358 -0.543019 -5.144191 -6.923838 1.298100 -7.218200 -20.363500 22.140311 2.445152 -15.492048 -8.567729 -12.462585 42.834453 -1.357777 -7.176920 -13.887733 -0.744700 5.512400 -15.376100 5.514461 0.861256 5.334136 1.332001 1.286185 -13.618028 2.260327 9.085578 31.090798 3.778300 4.094000 12.498400 -35.730900 -7.620122 -32.336809 29.894702 -45.439141 -5.295787 0.333816 6.538914 -5.279174 -7.125000 0.000000 0.000000 40.826745 0.185122 -44.576374 -26.366979 42.535466 -5.129305 -0.528258 -1.568799 -18.858279 7.125000 0.000000 0.000000 
6.709844 18.487509 -17.244931 8.012372 -79.739536 -4.493533 -23.879052 -0.966965 -9.162159 6.940226 9.249287 31.558256 -0.439108 -4.769868 -6.948961 0.809600 -5.742000 -16.037500 21.947556 2.277755 -14.886536 -8.483997 -12.437956 42.708419 -1.462396 -8.462140 -13.952288 -0.569600 4.833600 -13.434700 6.229799 0.821231 5.153875 1.061930 1.235627 -14.025051 1.401948 9.258118 30.681852 3.479000 4.081900 12.300600 -33.532569 -8.129892 -33.356027 30.179806 -45.953824 -5.343050 0.207773 6.807372 -5.756047 -7.125000 0.000000 0.000000 38.630692 1.011605 -44.465199 -26.927832 43.450997 -5.344568 -0.518962 -1.664746 -19.567695 7.125000 0.000000 0.000000 
6.722932 18.497278 -17.242996 7.575485 -79.732884 -4.170423 -23.134508 -1.208192 -8.769640 6.944181 9.281236 31.687406 -0.327951 -4.350717 -6.866300 0.434600 -4.230500 -11.726200 21.376695 2.030092 -14.547136 -8.392419 -12.460546 42.704199 -1.564152 -9.670767 -13.689004 -0.419500 4.157000 -11.518800 5.925551 1.039633 4.543910 0.991465 1.336217 -14.493877 1.363632 9.081558 31.313360 3.356600 4.054400 12.482200 -31.170992 -9.624540 -34.108679 30.422057 -46.446752 -5.364571 0.180920 7.069687 -6.106474 -7.125000 0.000000 0.000000 36.619885 0.970083 -44.236166 -27.714485 44.587205 -5.676499 -0.521429 -1.784754 -21.202134 7.125000 0.000000 0.000000 
6.734729 18.486495 -17.238296 7.570416 -79.645583 -4.619921 -22.473258 -1.240853 -8.183583 6.962629 9.289309 31.829289 -0.297919 -4.211948 -6.486518 0.416800 -4.143800 -11.481500 20.544793 1.610446 -13.886292 -8.298537 -12.486788 42.734838 -1.640405 -10.418721 -13.149219 -0.217500 3.002600 -8.285900 5.843050 1.172816 5.042912 0.861586 1.429646 -14.904626 2.062603 8.618833 31.872922 3.518400 3.924200 12.595400 -28.976938 -11.517748 -35.374889 30.650623 -46.904672 -5.411915 0.240119 7.278941 -6.383463 -7.125000 0.000000 0.000000 34.480161 1.269610 -44.490784 -28.469183 45.712563 -6.006957 -0.565783 -1.914450 -22.408211 7.125000 0.000000 0.000000 
6.743577 18.456173 -17.231107 7.875349 -79.578430 -5.593554 -21.844546 -0.958594 -7.512823 6.986724 9.268080 31.906501 -0.401700 -4.556493 -5.932875 0.638600 -5.112600 -14.230000 19.553865 1.140677 -12.983955 -8.200021 -12.497357 42.768200 -1.708925 -10.931736 -12.361031 -0.076600 1.785000 -4.911700 7.750813 0.470819 6.215667 1.026643 1.172591 -15.287646 2.672657 9.140915 32.316884 4.013100 4.133400 12.695600 -27.592906 -10.981455 -37.198021 31.198347 -47.761129 -5.691933 0.147903 7.424852 -6.984678 -7.125000 0.000000 0.000000 31.628394 4.325624 -45.617923 -28.798539 46.570190 -6.200831 -0.583313 -2.027194 -20.326955 7.125000 0.000000 0.000000 
